<?xml version="1.0" encoding="utf-8"?>
<!-- Generator: Adobe Illustrator 21.0.0, SVG Export Plug-In . SVG Version: 6.00 Build 0)  -->
<svg version="1.1" id="圖層_1" xmlns="http://www.w3.org/2000/svg" xmlns:xlink="http://www.w3.org/1999/xlink" x="0px" y="0px"
	 viewBox="0 0 302 293.2" style="enable-background:new 0 0 302 293.2;" xml:space="preserve" fill="#fff">

<g>
	<g>
		<g>
			<path d="M135,166.3h0.5c3.6-3.9,19.2-19.8,22.3-23.4c3-3.5,5.3-6.2,5.3-8c0-1.2-0.4-1.9-1.5-2.1c-1-0.2-1.4-0.4-1.4-1.1
				c0-0.7,0.5-1,1.7-1c2.2,0,8.1,0.3,11,0.3c3.3,0,9.2-0.3,12.5-0.3c1.1,0,1.8,0.2,1.8,1c0,0.7-0.5,1-1.6,1c-1.5,0-4.2,0.4-6.2,1.2
				c-3.3,1.3-6.9,3.5-11.5,8c-3.3,3.2-19.4,19.2-23,23c3.8,5,24.7,27.5,28.9,31.4c4.7,4.5,9.5,9.3,15.2,11.5
				c3.2,1.3,5.3,1.6,6.6,1.6c0.7,0,1.4,0.2,1.4,0.9c0,0.7-0.5,1.1-2.6,1.1h-9.3c-3.2,0-5.1,0-7.3-0.2c-5.7-0.5-8.6-2.9-13.2-6.9
				c-4.7-4.2-25.7-28.8-27.9-31.8l-1.2-1.6H135v9.7c0,9.8,0,18.2,0.3,22.8c0.2,3,1.2,5.3,3.8,5.8c1.5,0.2,3.8,0.4,5.2,0.4
				c0.8,0,1.4,0.3,1.4,0.9c0,0.7-0.9,1.1-2,1.1c-6,0-12.7-0.3-15.3-0.3c-2.5,0-9.2,0.3-13.4,0.3c-1.4,0-2.1-0.3-2.1-1.1
				c0-0.5,0.4-0.9,1.7-0.9c1.6,0,2.9-0.2,3.8-0.4c2.1-0.4,2.7-2.8,3.1-5.9c0.5-4.5,0.5-12.9,0.5-22.7v-18.7c0-16.2,0-19.2-0.2-22.6
				c-0.2-3.6-1.1-5.3-4.6-6.1c-0.8-0.2-2.7-0.3-4.2-0.3c-1.2,0-1.8-0.2-1.8-1c0-0.7,0.7-1,2.3-1c5.6,0,12.3,0.3,14.9,0.3
				c2.6,0,9.3-0.3,12.9-0.3c1.5,0,2.2,0.2,2.2,1c0,0.7-0.6,1-1.5,1c-1.1,0-1.7,0.1-3,0.3c-2.9,0.5-3.7,2.3-3.9,6.1
				c-0.2,3.4-0.2,6.4-0.2,22.6V166.3z"/>
		</g>
		<g>
			<polygon points="150.8,89.5 153.9,95.8 161,96.8 155.9,101.8 157.1,108.8 150.8,105.5 144.5,108.8 145.7,101.8 140.6,96.8 
				147.7,95.8 			"/>
		</g>
		<g>
			<polygon points="110.1,101.9 114.8,105.1 120.1,103 118.5,108.5 122.1,112.8 116.5,113 113.4,117.9 111.5,112.5 106,111.1 
				110.4,107.6 			"/>
		</g>
		<g>
			<polygon points="80.8,130.1 85.7,130.4 88.8,126.5 90,131.3 94.7,133.1 90.5,135.7 90.3,140.7 86.5,137.5 81.7,138.8 83.5,134.2 
							"/>
		</g>
		<g>
			<polygon points="220.8,130.1 218.1,134.2 219.9,138.8 215.1,137.5 211.3,140.7 211.1,135.7 206.9,133.1 211.6,131.3 212.8,126.5 
				215.9,130.4 			"/>
		</g>
		<g>
			<polygon points="191.6,101.9 191.2,107.6 195.6,111.1 190.1,112.5 188.2,117.9 185.1,113 179.5,112.8 183.1,108.5 181.5,103 
				186.8,105.1 			"/>
		</g>
		<g>
			<path d="M58.9,220.9c0,0,2.9-0.1,7.9-0.2c5-0.1,12.2-0.4,20.8-0.5c8.6-0.1,18.7-0.3,29.4-0.4c10.8-0.1,22.3-0.1,33.7-0.2
				c11.5,0.1,23,0.1,33.7,0.2c10.8,0,20.8,0.3,29.4,0.4c8.6,0.1,15.8,0.4,20.8,0.5c5,0.2,7.9,0.2,7.9,0.2s-2.9,0.1-7.9,0.3
				c-5,0.1-12.2,0.4-20.8,0.5c-8.6,0.1-18.7,0.4-29.4,0.4c-10.8,0.1-22.3,0.1-33.7,0.2c-11.5-0.1-23-0.1-33.7-0.2
				c-10.8-0.1-20.8-0.3-29.4-0.4c-8.6-0.1-15.8-0.4-20.8-0.5C61.8,221,58.9,220.9,58.9,220.9z"/>
		</g>
		<g>
			<path d="M23.9,250c-0.4-0.2-0.5-0.3-0.5-0.8c0-1.3,0.1-2.8,0.1-3.2c0-0.4,0.1-0.6,0.3-0.6c0.2,0,0.2,0.2,0.2,0.4
				c0,0.3,0.1,0.8,0.2,1.2c0.5,1.8,2,2.4,3.5,2.4c2.2,0,3.2-1.5,3.2-2.8c0-1.2-0.4-2.3-2.4-3.9l-1.1-0.9c-2.7-2.1-3.6-3.8-3.6-5.7
				c0-2.7,2.2-4.6,5.6-4.6c1.6,0,2.6,0.2,3.2,0.4c0.2,0,0.3,0.1,0.3,0.3c0,0.3-0.1,1-0.1,2.9c0,0.5-0.1,0.7-0.3,0.7
				c-0.2,0-0.2-0.1-0.2-0.4c0-0.2-0.1-1-0.6-1.6c-0.4-0.5-1.1-1.2-2.6-1.2c-1.8,0-2.9,1-2.9,2.5c0,1.1,0.6,2,2.6,3.5l0.7,0.5
				c2.9,2.2,4,3.9,4,6.2c0,1.4-0.5,3.1-2.3,4.2c-1.2,0.8-2.6,1-3.9,1C26,250.6,24.9,250.4,23.9,250z"/>
			<path d="M38.1,240.6c0-3.1,0-3.7,0-4.4c-0.1-0.7-0.2-0.9-0.9-1.1c-0.2,0-0.5-0.1-0.8-0.1c-0.2,0-0.4-0.1-0.4-0.2
				c0-0.1,0.2-0.2,0.5-0.2c1.1,0,2.5,0,3.1,0c0.9,0,2.6,0,3.5,0c2.7,0,3.6,0.9,4,1.2c0.5,0.4,1.1,1.4,1.1,2.5c0,2.9-2.3,5-5.4,5
				c-0.1,0-0.5,0-0.6,0c-0.1,0-0.3-0.1-0.3-0.2c0-0.2,0.2-0.3,0.7-0.3c1.2,0,2.9-1.2,2.9-3.3c0-0.7-0.1-2-1.3-3.1
				c-0.8-0.7-1.6-0.8-2.1-0.8c-0.3,0-0.7,0-0.9,0.1c-0.1,0.1-0.2,0.2-0.2,0.4v8.2c0,1.9,0,3.5,0.1,4.4c0.1,0.6,0.2,1,0.8,1.1
				c0.3,0,0.8,0.1,1.1,0.1c0.2,0,0.3,0.1,0.3,0.2c0,0.1-0.2,0.2-0.4,0.2c-1.4,0-2.9-0.1-3.5-0.1c-0.5,0-1.8,0.1-2.7,0.1
				c-0.3,0-0.4-0.1-0.4-0.2c0-0.1,0.1-0.2,0.3-0.2c0.3,0,0.6,0,0.8-0.1c0.4-0.1,0.6-0.5,0.6-1.1c0.1-0.9,0.1-2.5,0.1-4.4V240.6z"/>
			<path d="M52,245c-0.1,0-0.1,0-0.2,0.1l-1.1,2.8c-0.2,0.5-0.3,1-0.3,1.3c0,0.4,0.2,0.6,0.8,0.6h0.3c0.3,0,0.3,0.1,0.3,0.2
				c0,0.2-0.1,0.2-0.3,0.2c-0.7,0-1.7-0.1-2.4-0.1c-0.2,0-1.4,0.1-2.5,0.1c-0.3,0-0.4,0-0.4-0.2c0-0.1,0.1-0.2,0.2-0.2
				c0.2,0,0.4,0,0.6,0c1-0.1,1.3-0.8,1.8-1.8l5.6-12.9c0.2-0.6,0.4-0.8,0.6-0.8c0.3,0,0.4,0.2,0.6,0.7c0.5,1.1,4.1,9.5,5.4,12.6
				c0.8,1.9,1.4,2.1,1.8,2.2c0.3,0,0.6,0.1,0.8,0.1c0.2,0,0.3,0.1,0.3,0.2c0,0.2-0.1,0.2-0.9,0.2c-0.8,0-2.3,0-4.1,0
				c-0.4,0-0.6,0-0.6-0.2c0-0.1,0-0.2,0.3-0.2c0.1,0,0.3-0.2,0.2-0.5l-1.6-4.2c0-0.1-0.1-0.1-0.2-0.1H52z M56.6,243.9
				c0.1,0,0.1,0,0.1-0.1l-2-5.2c0-0.1-0.1-0.2-0.1-0.2c-0.1,0-0.1,0.1-0.1,0.2l-2.1,5.1c0,0.1,0,0.1,0.1,0.1H56.6z"/>
			<path d="M66.2,240.6c0-3.1,0-3.7,0-4.4c-0.1-0.7-0.2-0.9-0.9-1.1c-0.2,0-0.5-0.1-0.8-0.1c-0.2,0-0.4-0.1-0.4-0.2
				c0-0.1,0.2-0.2,0.5-0.2c1.1,0,2.5,0,3.1,0c0.7,0,2.2,0,3.5,0c2.7,0,6.2,0,8.6,2.3c1.1,1.1,2,2.8,2,5.2c0,2.6-1.1,4.6-2.3,5.7
				c-1,1-3.2,2.4-7.1,2.4c-0.8,0-1.7-0.1-2.5-0.1c-0.8-0.1-1.6-0.1-2.2-0.1c-0.2,0-0.7,0-1.2,0c-0.5,0-1,0-1.5,0
				c-0.3,0-0.4-0.1-0.4-0.2c0-0.1,0.1-0.2,0.3-0.2c0.3,0,0.6,0,0.7-0.1c0.4-0.1,0.6-0.5,0.6-1.1c0.1-0.9,0.1-2.5,0.1-4.4V240.6z
				 M69,242.9c0,2.2,0,3.8,0.1,4.2c0,0.5,0.1,1.2,0.2,1.5c0.3,0.4,1.1,0.8,2.8,0.8c1.9,0,3.4-0.3,4.7-1.4c1.4-1.1,1.8-3,1.8-5.1
				c0-2.6-1-4.3-2-5.1c-2-1.7-4.3-2-6-2c-0.4,0-1.1,0-1.3,0.1c-0.2,0.1-0.3,0.2-0.3,0.4c0,0.7,0,2.4,0,4V242.9z"/>
			<path d="M85.8,240.6c0-3.1,0-3.7,0-4.4c0-0.7-0.2-0.9-0.9-1.1c-0.2,0-0.5-0.1-0.8-0.1c-0.2,0-0.4-0.1-0.4-0.2
				c0-0.1,0.2-0.2,0.5-0.2c1.1,0,2.5,0,3.1,0c0.7,0,5.4,0,5.8,0c0.4,0,0.7-0.1,0.9-0.1c0.1,0,0.2-0.1,0.3-0.1c0.1,0,0.1,0.1,0.1,0.2
				c0,0.1-0.1,0.4-0.2,1.3c0,0.2-0.1,1.1-0.1,1.4c0,0.1-0.1,0.3-0.2,0.3c-0.1,0-0.2-0.1-0.2-0.3c0-0.1,0-0.5-0.1-0.8
				c-0.2-0.4-0.3-0.7-1.4-0.8c-0.4,0-2.9-0.1-3.3-0.1c-0.1,0-0.1,0.1-0.1,0.2v5.1c0,0.1,0,0.2,0.1,0.2c0.5,0,3.2,0,3.7,0
				c0.5,0,0.8-0.1,1-0.3c0.2-0.1,0.2-0.3,0.3-0.3c0.1,0,0.2,0.1,0.2,0.2c0,0.1,0,0.5-0.2,1.5c0,0.4-0.1,1.2-0.1,1.4
				c0,0.2,0,0.5-0.2,0.5c-0.1,0-0.2-0.1-0.2-0.2c0-0.2,0-0.5-0.1-0.7c-0.1-0.4-0.4-0.7-1.2-0.8c-0.4,0-2.8-0.1-3.3-0.1
				c-0.1,0-0.1,0.1-0.1,0.2v1.6c0,0.7,0,2.4,0,3.1c0,1.4,0.7,1.7,2.9,1.7c0.6,0,1.5,0,2-0.3c0.5-0.2,0.8-0.7,0.9-1.5
				c0.1-0.2,0.1-0.3,0.2-0.3c0.2,0,0.2,0.3,0.2,0.5c0,0.5-0.2,1.9-0.3,2.3c-0.1,0.5-0.3,0.5-1.1,0.5c-1.6,0-2.9,0-3.9-0.1
				c-1,0-1.8,0-2.5,0c-0.2,0-0.7,0-1.2,0c-0.5,0-1,0-1.5,0c-0.3,0-0.4-0.1-0.4-0.2c0-0.1,0.1-0.2,0.3-0.2c0.3,0,0.6,0,0.8-0.1
				c0.4-0.1,0.6-0.5,0.6-1.1c0.1-0.9,0.1-2.5,0.1-4.4V240.6z"/>
			<path d="M98.4,250c-0.3-0.1-0.4-0.2-0.4-0.7c0-1.1,0.1-2.4,0.1-2.7c0-0.3,0.1-0.5,0.3-0.5c0.2,0,0.2,0.2,0.2,0.3
				c0,0.3,0.1,0.7,0.2,1.1c0.5,1.5,2.1,2,3.4,2c1.8,0,2.9-1.2,2.9-2.6c0-0.9-0.2-1.8-2.1-2.9l-1.2-0.7c-2.5-1.5-3.3-2.9-3.3-4.7
				c0-2.5,2.4-4.1,5.4-4.1c1.4,0,2.5,0.2,3,0.3c0.2,0,0.3,0.1,0.3,0.3c0,0.3-0.1,0.8-0.1,2.5c0,0.4-0.1,0.7-0.3,0.7
				c-0.1,0-0.2-0.1-0.2-0.4c0-0.2-0.1-0.8-0.6-1.4c-0.3-0.4-1-1-2.4-1c-1.5,0-2.9,0.8-2.9,2.2c0,0.9,0.3,1.6,2.2,2.7l0.9,0.5
				c2.8,1.5,3.7,3.1,3.7,5c0,1.5-0.6,2.8-2.1,3.9c-1,0.7-2.4,0.8-3.6,0.8C100.6,250.5,99.3,250.4,98.4,250z"/>
			<path d="M122.8,240h0.1c0.8-0.9,4.4-4.5,5.1-5.3c0.7-0.8,1.2-1.4,1.2-1.8c0-0.3-0.1-0.4-0.3-0.5c-0.2-0.1-0.3-0.1-0.3-0.2
				c0-0.2,0.1-0.2,0.4-0.2c0.5,0,1.8,0.1,2.5,0.1c0.8,0,2.1-0.1,2.8-0.1c0.2,0,0.4,0,0.4,0.2c0,0.2-0.1,0.2-0.4,0.2
				c-0.3,0-0.9,0.1-1.4,0.3c-0.8,0.3-1.6,0.8-2.6,1.8c-0.8,0.7-4.4,4.4-5.2,5.2c0.9,1.1,5.6,6.2,6.6,7.1c1.1,1,2.2,2.1,3.5,2.6
				c0.7,0.3,1.2,0.4,1.5,0.4c0.2,0,0.3,0,0.3,0.2c0,0.2-0.1,0.2-0.6,0.2h-2.1c-0.7,0-1.2,0-1.7,0c-1.3-0.1-2-0.7-3-1.6
				c-1.1-0.9-5.8-6.5-6.3-7.2L123,241h-0.1v2.2c0,2.2,0,4.1,0.1,5.2c0,0.7,0.3,1.2,0.9,1.3c0.3,0.1,0.9,0.1,1.2,0.1
				c0.2,0,0.3,0.1,0.3,0.2c0,0.2-0.2,0.2-0.5,0.2c-1.4,0-2.9-0.1-3.5-0.1c-0.6,0-2.1,0.1-3.1,0.1c-0.3,0-0.5-0.1-0.5-0.2
				c0-0.1,0.1-0.2,0.4-0.2c0.4,0,0.7,0,0.9-0.1c0.5-0.1,0.6-0.6,0.7-1.3c0.1-1,0.1-2.9,0.1-5.2V239c0-3.7,0-4.4-0.1-5.1
				c0-0.8-0.2-1.2-1-1.4c-0.2,0-0.6-0.1-0.9-0.1c-0.3,0-0.4,0-0.4-0.2c0-0.2,0.2-0.2,0.5-0.2c1.3,0,2.8,0.1,3.4,0.1
				c0.6,0,2.1-0.1,2.9-0.1c0.3,0,0.5,0,0.5,0.2c0,0.2-0.1,0.2-0.3,0.2c-0.2,0-0.4,0-0.7,0.1c-0.7,0.1-0.8,0.5-0.9,1.4
				c0,0.8,0,1.5,0,5.1V240z"/>
			<path d="M137.8,240.6c0-3.1,0-3.7,0-4.4c-0.1-0.7-0.3-0.9-0.7-1.1c-0.2-0.1-0.5-0.1-0.8-0.1c-0.2,0-0.3,0-0.3-0.2
				c0-0.1,0.2-0.2,0.5-0.2c0.8,0,2.2,0,2.9,0c0.5,0,1.9,0,2.7,0c0.3,0,0.4,0,0.4,0.2c0,0.2-0.1,0.2-0.3,0.2c-0.2,0-0.4,0-0.6,0.1
				c-0.6,0.1-0.8,0.4-0.8,1.1c-0.1,0.7-0.1,1.2-0.1,4.4v3.6c0,2,0,3.6,0.1,4.5c0.1,0.6,0.2,0.9,0.8,1c0.3,0,0.8,0.1,1.1,0.1
				c0.2,0,0.3,0.1,0.3,0.2c0,0.1-0.2,0.2-0.4,0.2c-1.4,0-2.9-0.1-3.4-0.1c-0.5,0-1.9,0.1-2.8,0.1c-0.3,0-0.4-0.1-0.4-0.2
				c0-0.1,0.1-0.2,0.3-0.2c0.3,0,0.6,0,0.8-0.1c0.4-0.1,0.6-0.4,0.6-1c0.1-0.8,0.1-2.5,0.1-4.5V240.6z"/>
			<path d="M148.7,247.4c0,1.6,0.3,2.1,0.7,2.2c0.4,0.1,0.8,0.1,1.1,0.1c0.2,0,0.4,0.1,0.4,0.2c0,0.2-0.2,0.2-0.5,0.2
				c-1.4,0-2.4-0.1-2.8-0.1c-0.2,0-1.2,0.1-2.3,0.1c-0.3,0-0.5,0-0.5-0.2c0-0.1,0.1-0.2,0.3-0.2c0.3,0,0.7,0,1-0.1
				c0.6-0.1,0.6-0.7,0.7-2.5L147,235c0-0.4,0.1-0.7,0.4-0.7c0.3,0,0.6,0.3,0.9,0.7c0.3,0.3,3.5,3.5,6.6,6.6c1.5,1.4,4.3,4.3,4.6,4.6
				h0.1l-0.2-9.2c0-1.3-0.2-1.6-0.7-1.8c-0.3-0.1-0.8-0.1-1.1-0.1c-0.3,0-0.3-0.1-0.3-0.2c0-0.2,0.2-0.2,0.5-0.2c1.1,0,2.3,0,2.7,0
				c0.2,0,1,0,2.1,0c0.3,0,0.5,0,0.5,0.2c0,0.1-0.1,0.2-0.4,0.2c-0.2,0-0.4,0-0.7,0.1c-0.6,0.2-0.8,0.5-0.8,1.7l-0.2,13
				c0,0.5-0.2,0.7-0.3,0.7c-0.4,0-0.6-0.2-0.9-0.4c-1.3-1.2-4-3.8-6.2-5.9c-2.3-2.2-4.6-4.7-5-5.1h-0.1L148.7,247.4z"/>
			<path d="M180.3,248.9c0,0.6,0,0.6-0.3,0.7c-1.4,0.7-3.5,0.9-5.2,0.9c-5.2,0-9.9-2.4-9.9-8.1c0-3.3,1.8-5.6,3.7-6.7
				c2-1.2,4-1.3,5.7-1.3c1.5,0,3.3,0.2,3.8,0.3c0.4,0.1,1.2,0.2,1.7,0.2c0.2,0,0.3,0.1,0.3,0.2c0,0.2-0.1,0.8-0.1,3.4
				c0,0.3-0.1,0.5-0.3,0.5c-0.1,0-0.2-0.1-0.2-0.3c0-0.5-0.2-1.1-0.7-1.7c-0.6-0.7-2.2-1.6-4.6-1.6c-1.2,0-2.6,0-4.1,1.2
				c-1.2,1-2,2.5-2,5c0,4.4,2.9,7.7,7.4,7.7c0.6,0,1,0,1.5-0.2c0.3-0.1,0.4-0.4,0.4-0.7v-1.9c0-1,0-1.8,0-2.4c0-0.7-0.2-0.9-0.9-1.1
				c-0.2,0-0.5-0.1-0.8-0.1c-0.2,0-0.3-0.1-0.3-0.2c0-0.2,0.2-0.2,0.5-0.2c1.1,0,2.6,0,3.3,0c0.7,0,1.8,0,2.5,0c0.3,0,0.4,0,0.4,0.2
				c0,0.1-0.1,0.2-0.3,0.2c-0.2,0-0.3,0-0.6,0.1c-0.6,0.1-0.8,0.4-0.8,1.1c0,0.6,0,1.5,0,2.5V248.9z"/>
			<path d="M193.5,239c0-3.7,0-4.4,0-5.1c-0.1-0.8-0.2-1.2-1-1.4c-0.2,0-0.6-0.1-0.9-0.1c-0.3,0-0.4,0-0.4-0.2
				c0-0.2,0.2-0.2,0.5-0.2c1.3,0,2.8,0.1,3.3,0.1c1.2,0,2.1-0.1,3-0.1c4.4,0,5.2,2.3,5.2,3.6c0,2-1.1,3.2-2.5,4.2
				c2,0.7,4.4,2.4,4.4,5.2c0,2.6-2,5.3-6.5,5.3c-0.3,0-1,0-1.7-0.1c-0.7,0-1.5-0.1-1.8-0.1c-0.3,0-0.8,0-1.4,0c-0.6,0-1.2,0-1.7,0
				c-0.3,0-0.5-0.1-0.5-0.2c0-0.1,0.1-0.2,0.4-0.2c0.4,0,0.7,0,0.9-0.1c0.5-0.1,0.6-0.6,0.7-1.3c0.1-1,0.1-2.9,0.1-5.2V239z
				 M196.4,239.4c0,0.2,0.1,0.2,0.2,0.3c0.2,0,0.6,0.1,1.1,0.1c0.8,0,1.3-0.1,1.7-0.5c0.6-0.5,1-1.4,1-2.6c0-1.6-0.9-3.8-3-3.8
				c-0.3,0-0.6,0-0.8,0.1c-0.2,0-0.2,0.1-0.2,0.4V239.4z M199.6,241.3c-0.5-0.4-1.1-0.5-2-0.6c-0.4,0-0.7,0-1,0
				c-0.1,0-0.1,0-0.1,0.2v5.7c0,1.6,0.1,2,0.8,2.3c0.7,0.3,1.2,0.3,1.8,0.3c1.1,0,2.9-0.6,2.9-3.1
				C202,244.6,201.4,242.6,199.6,241.3z"/>
			<path d="M209.4,240.6c0-3.1,0-3.7,0-4.4c-0.1-0.7-0.3-0.9-0.7-1.1c-0.2-0.1-0.5-0.1-0.8-0.1c-0.2,0-0.3,0-0.3-0.2
				c0-0.1,0.2-0.2,0.5-0.2c0.8,0,2.2,0,2.9,0c0.5,0,1.9,0,2.7,0c0.3,0,0.4,0,0.4,0.2c0,0.2-0.1,0.2-0.3,0.2c-0.2,0-0.4,0-0.6,0.1
				c-0.6,0.1-0.8,0.4-0.8,1.1c-0.1,0.7-0.1,1.2-0.1,4.4v3.6c0,2,0,3.6,0.1,4.5c0.1,0.6,0.2,0.9,0.8,1c0.3,0,0.8,0.1,1.1,0.1
				c0.2,0,0.3,0.1,0.3,0.2c0,0.1-0.2,0.2-0.4,0.2c-1.4,0-2.9-0.1-3.4-0.1c-0.5,0-1.9,0.1-2.8,0.1c-0.3,0-0.4-0.1-0.4-0.2
				c0-0.1,0.1-0.2,0.3-0.2c0.3,0,0.6,0,0.8-0.1c0.4-0.1,0.6-0.4,0.6-1c0.1-0.8,0.1-2.5,0.1-4.5V240.6z"/>
			<path d="M217.9,250c-0.3-0.1-0.4-0.2-0.4-0.7c0-1.1,0.1-2.4,0.1-2.7c0-0.3,0.1-0.5,0.3-0.5c0.2,0,0.2,0.2,0.2,0.3
				c0,0.3,0.1,0.7,0.2,1.1c0.5,1.5,2.1,2,3.4,2c1.8,0,3-1.2,3-2.6c0-0.9-0.2-1.8-2.1-2.9l-1.2-0.7c-2.5-1.5-3.3-2.9-3.3-4.7
				c0-2.5,2.4-4.1,5.4-4.1c1.4,0,2.5,0.2,3,0.3c0.2,0,0.3,0.1,0.3,0.3c0,0.3-0.1,0.8-0.1,2.5c0,0.4-0.1,0.7-0.3,0.7
				c-0.1,0-0.2-0.1-0.2-0.4c0-0.2-0.1-0.8-0.6-1.4c-0.3-0.4-1-1-2.4-1c-1.5,0-2.9,0.8-2.9,2.2c0,0.9,0.3,1.6,2.2,2.7l0.9,0.5
				c2.8,1.5,3.7,3.1,3.7,5c0,1.5-0.6,2.8-2.1,3.9c-1,0.7-2.4,0.8-3.6,0.8C220.1,250.5,218.8,250.4,217.9,250z"/>
			<path d="M234.7,235.9l-3.2,0.1c-1.2,0-1.7,0.2-2.1,0.6c-0.2,0.3-0.3,0.6-0.4,0.7c0,0.2-0.1,0.3-0.2,0.3c-0.1,0-0.2-0.1-0.2-0.3
				c0-0.3,0.4-2.3,0.5-2.5c0-0.3,0.1-0.4,0.2-0.4c0.2,0,0.4,0.2,0.9,0.2c0.6,0.1,1.4,0.1,2.1,0.1h8.6c0.7,0,1.1,0,1.5-0.1
				c0.3,0,0.5-0.1,0.6-0.1c0.1,0,0.2,0.1,0.2,0.4c0,0.4,0,2,0,2.5c0,0.2-0.1,0.3-0.2,0.3c-0.2,0-0.2-0.1-0.2-0.4l0-0.2
				c0-0.5-0.6-1.2-2.5-1.2l-2.7,0v8.3c0,1.9,0,3.5,0.1,4.4c0.1,0.6,0.2,1,0.8,1.1c0.3,0,0.8,0.1,1.1,0.1c0.2,0,0.3,0.1,0.3,0.2
				c0,0.1-0.2,0.2-0.4,0.2c-1.4,0-2.8-0.1-3.4-0.1c-0.5,0-1.9,0.1-2.8,0.1c-0.3,0-0.4-0.1-0.4-0.2c0-0.1,0.1-0.2,0.3-0.2
				c0.3,0,0.6,0,0.8-0.1c0.4-0.1,0.6-0.5,0.6-1.1c0.1-0.9,0.1-2.5,0.1-4.4V235.9z"/>
			<path d="M247,240.6c0-3.1,0-3.7,0-4.4c-0.1-0.7-0.2-0.9-0.9-1.1c-0.2,0-0.5-0.1-0.8-0.1c-0.2,0-0.4-0.1-0.4-0.2
				c0-0.1,0.2-0.2,0.5-0.2c1.1,0,2.5,0,2.9,0c0.7,0,2.7,0,3.3,0c1.4,0,2.9,0.1,4,0.9c0.6,0.4,1.5,1.5,1.5,2.8c0,1.5-0.9,2.9-3,4.6
				c1.9,2.3,3.4,4.2,4.7,5.5c1.2,1.2,1.9,1.3,2.3,1.4c0.2,0,0.3,0,0.5,0c0.2,0,0.3,0.1,0.3,0.2c0,0.2-0.2,0.2-0.4,0.2h-2
				c-1.2,0-1.8-0.1-2.3-0.4c-0.9-0.5-1.7-1.4-2.9-3c-0.8-1.1-1.7-2.5-2-2.8c-0.1-0.1-0.2-0.1-0.4-0.1l-1.9,0c-0.1,0-0.2,0-0.2,0.2
				v0.3c0,1.9,0,3.5,0.1,4.4c0.1,0.6,0.2,1,0.8,1.1c0.3,0,0.8,0.1,1,0.1c0.2,0,0.3,0.1,0.3,0.2c0,0.1-0.2,0.2-0.4,0.2
				c-1.2,0-3-0.1-3.3-0.1c-0.4,0-1.8,0.1-2.6,0.1c-0.3,0-0.4-0.1-0.4-0.2c0-0.1,0.1-0.2,0.3-0.2c0.3,0,0.6,0,0.8-0.1
				c0.4-0.1,0.6-0.5,0.6-1.1c0.1-0.9,0.1-2.5,0.1-4.4V240.6z M249.7,242.2c0,0.2,0,0.3,0.2,0.4c0.5,0.1,1.1,0.2,1.6,0.2
				c0.8,0,1.1-0.1,1.5-0.3c0.7-0.5,1.4-1.4,1.4-3.1c0-2.9-2-3.7-3.2-3.7c-0.5,0-1,0-1.3,0.1c-0.1,0-0.2,0.1-0.2,0.3V242.2z"/>
			<path d="M260.9,242.5c0-3.5,2.5-8.1,8.9-8.1c5.4,0,8.7,3,8.7,7.7c0,4.7-3.4,8.4-8.9,8.4C263.4,250.5,260.9,246.1,260.9,242.5z
				 M275.4,242.8c0-4.6-2.7-7.4-6.2-7.4c-2.4,0-5.2,1.3-5.2,6.3c0,4.2,2.4,7.6,6.4,7.6C272,249.4,275.4,248.7,275.4,242.8z"/>
		</g>
		<path d="M240.8,150.5c0,0-0.3-0.9-0.9-2.6c-0.6-1.7-1.4-4.3-2.8-7.4c-0.7-1.5-1.3-3.3-2.2-5.1c-0.9-1.8-2-3.7-3.1-5.8
			c-1.2-2-2.6-4.1-4-6.3c-1.5-2.1-3.2-4.3-4.9-6.6c-3.7-4.3-7.9-8.9-12.9-13c-4.9-4.3-10.7-7.9-16.8-11.3
			c-6.2-3.4-13.1-5.7-20.1-7.6c-7.1-1.8-14.7-2.6-21.9-2.7c-7.8,0.2-14.9,0.9-22.1,2.7c-7,2-13.9,4.3-20.1,7.6
			c-6.2,3.3-11.9,7-16.8,11.3c-5,4.1-9.2,8.7-12.9,13c-1.7,2.3-3.4,4.5-4.9,6.6c-1.4,2.2-2.8,4.3-4,6.3c-1.1,2.1-2.1,4-3.1,5.8
			c-0.9,1.8-1.6,3.6-2.3,5.1c-1.4,3.1-2.1,5.6-2.8,7.4c-0.6,1.7-0.9,2.6-0.9,2.6s0.2-0.9,0.6-2.7c0.5-1.8,0.8-4.5,2.1-7.7
			c0.6-1.6,1.1-3.4,1.9-5.4c0.8-1.9,1.7-4,2.6-6.1c1.1-2.1,2.3-4.4,3.6-6.7c1.4-2.3,3-4.6,4.6-7.1c3.6-4.7,7.6-9.7,12.7-14.2
			c4.9-4.7,10.8-8.8,17.2-12.5c1.6-0.9,3.3-1.7,5-2.6c1.7-0.8,3.5-1.5,5.2-2.2c0.9-0.4,1.8-0.8,2.6-1.1l2.7-0.9
			c1.8-0.5,3.7-1.2,5.6-1.7c7.5-2,15.7-2.9,23.2-3c8.1,0.2,15.8,1.1,23.4,3c1.9,0.4,3.7,1.1,5.5,1.7l2.7,0.9
			c0.9,0.3,1.8,0.7,2.6,1.1c1.8,0.8,3.5,1.4,5.2,2.2c1.7,0.9,3.3,1.7,5,2.6c6.4,3.6,12.3,7.8,17.2,12.5c5.1,4.5,9.1,9.5,12.7,14.2
			c1.6,2.5,3.2,4.8,4.6,7.1c1.3,2.4,2.5,4.6,3.6,6.7c0.9,2.2,1.8,4.2,2.6,6.1c0.8,1.9,1.3,3.8,1.9,5.4c1.2,3.2,1.6,5.9,2.1,7.6
			C240.6,149.5,240.8,150.5,240.8,150.5z"/>
		<path d="M124.1,78.7c1.7-0.5,3.4-1.1,5.2-1.5c7-1.8,14.7-2.6,21.7-2.8c7.6,0.2,14.8,1,21.9,2.8c1.8,0.4,3.5,1,5.2,1.5l0.1,0
			c0.5-2.7,3.2-13.6,11.7-21.7c0,0-5.4,0.8-8.6,4.3c0,0-4.1-4-7.8,0.5c1.6-0.2,3.1,0.1,4,1.2c1.8,2,1.3,5.5-1.3,7.8
			c-2.5,2.4-6.1,2.7-7.9,0.7c-0.8-0.9-1.1-2.1-1-3.4c-0.1-0.1-0.1-0.2-0.2-0.3c-0.2,1.4-0.7,2.6-1.7,3.4c-2.5,1.9-6.5,0.8-8.9-2.4
			c-2.5-3.2-2.4-7.4,0.1-9.2c1.8-1.4,4.5-1.1,6.7,0.4c0-0.1,0.2-6.9-8.2-4.8c0,0,0.3-3.7-4.1-12.4c-4.4,8.7-4.1,12.4-4.1,12.4
			c-8.5-2-8.2,4.7-8.2,4.8c2.2-1.5,4.9-1.7,6.7-0.4c2.5,1.9,2.5,6,0.1,9.2c-2.4,3.2-6.4,4.3-8.9,2.4c-1-0.8-1.6-2-1.7-3.4
			c-0.1,0.1-0.1,0.2-0.2,0.3c0.1,1.3-0.2,2.5-1,3.4c-1.8,2-5.4,1.6-7.9-0.7c-2.5-2.4-3.1-5.9-1.3-7.8c1-1.1,2.5-1.4,4-1.2
			c-3.8-4.5-7.8-0.5-7.8-0.5c-3.2-3.5-8.6-4.3-8.6-4.3c8.6,8.1,11.2,19,11.7,21.7L124.1,78.7z"/>
	</g>
</g>
</svg>
