<svg xmlns="http://www.w3.org/2000/svg" viewBox="0 0 302 293.25"><title>K Birstro 壓克力割字 (O)</title><path d="M135,154h.53c3.62-3.94,19.17-19.81,22.25-23.43s5.32-6.18,5.32-8c0-1.17-.42-1.92-1.49-2.13s-1.39-.43-1.39-1.06.53-1,1.71-1c2.24,0,8.09.32,11,.32,3.3,0,9.16-.32,12.46-.32,1.06,0,1.81.21,1.81,1s-.54,1-1.6,1a20.86,20.86,0,0,0-6.18,1.17c-3.3,1.28-6.92,3.52-11.5,8-3.3,3.2-19.38,19.17-23,23,3.84,5,24.71,27.47,28.86,31.41,4.68,4.48,9.47,9.26,15.22,11.5a18.5,18.5,0,0,0,6.6,1.6c.75,0,1.38.21,1.38.85s-.53,1.07-2.56,1.07h-9.26a73.49,73.49,0,0,1-7.35-.21c-5.75-.53-8.63-2.87-13.21-6.92S139,163,136.74,159.92l-1.17-1.6H135V168c0,9.8,0,18.21.32,22.79.21,3,1.17,5.33,3.83,5.75a44.9,44.9,0,0,0,5.22.42c.85,0,1.38.32,1.38.85,0,.75-.86,1.07-2,1.07-6,0-12.67-.32-15.33-.32-2.45,0-9.16.32-13.42.32-1.38,0-2.13-.32-2.13-1.07,0-.53.43-.85,1.71-.85a17.33,17.33,0,0,0,3.83-.42c2.13-.43,2.67-2.77,3.09-5.86.53-4.47.53-12.88.53-22.68V149.28c0-16.18,0-19.17-.21-22.57-.21-3.62-1.06-5.33-4.58-6.07a21.76,21.76,0,0,0-4.15-.32c-1.17,0-1.81-.21-1.81-1s.75-1,2.34-1c5.64,0,12.35.32,14.91.32s9.27-.32,12.88-.32c1.49,0,2.24.21,2.24,1s-.64,1-1.49,1a15.78,15.78,0,0,0-3,.32c-2.87.53-3.73,2.34-3.94,6.07-.21,3.41-.21,6.39-.21,22.57Z"/><polygon points="150.8 77.1 153.95 83.47 160.97 84.49 155.89 89.45 157.09 96.45 150.8 93.14 144.51 96.45 145.72 89.45 140.63 84.49 147.66 83.47 150.8 77.1"/><polygon points="110.05 89.58 114.78 92.73 120.06 90.62 118.52 96.1 122.15 100.47 116.47 100.69 113.44 105.5 111.47 100.16 105.96 98.77 110.42 95.25 110.05 89.58"/><polygon points="80.77 117.74 85.74 118.06 88.81 114.16 90.04 118.98 94.71 120.7 90.5 123.35 90.3 128.32 86.48 125.14 81.69 126.49 83.53 121.87 80.77 117.74"/><polygon points="220.83 117.74 218.07 121.87 219.91 126.49 215.13 125.14 211.3 128.32 211.1 123.36 206.9 120.7 211.57 118.98 212.79 114.16 215.87 118.06 220.83 117.74"/><polygon points="191.56 89.58 191.18 95.24 195.65 98.77 190.14 100.16 188.17 105.5 185.14 100.69 179.45 100.47 183.09 96.1 181.55 90.62 186.83 92.73 191.56 89.58"/><path d="M58.9,208.55l7.9-.25c5-.11,12.2-.36,20.82-.48s18.67-.35,29.44-.39l33.75-.17,33.74.17c10.77,0,20.83.29,29.44.39s15.79.37,20.82.48l7.9.25-7.9.25c-5,.1-12.2.36-20.82.47s-18.67.35-29.44.4l-33.74.17-33.75-.17c-10.77-.05-20.82-.29-29.44-.4s-15.79-.37-20.82-.48Z"/><path d="M23.9,237.6c-.38-.17-.46-.29-.46-.82,0-1.33.09-2.79.12-3.17s.1-.63.29-.63.24.22.24.41a5,5,0,0,0,.22,1.23,3.34,3.34,0,0,0,3.46,2.45A2.94,2.94,0,0,0,31,234.31c0-1.19-.36-2.3-2.37-3.88l-1.11-.87c-2.67-2.08-3.58-3.78-3.58-5.74,0-2.66,2.22-4.58,5.59-4.58a11.64,11.64,0,0,1,3.22.41c.22,0,.34.12.34.29s-.1,1-.1,2.91c0,.53-.07.73-.27.73s-.24-.14-.24-.44a3,3,0,0,0-.63-1.6,3.06,3.06,0,0,0-2.64-1.19c-1.79,0-2.88,1-2.88,2.49,0,1.11.56,2,2.57,3.49l.68.51c2.93,2.21,4,3.87,4,6.18a4.89,4.89,0,0,1-2.28,4.22,7,7,0,0,1-3.85,1A8.38,8.38,0,0,1,23.9,237.6Z"/><path d="M38.12,228.28c0-3.12,0-3.7,0-4.36s-.24-.92-.92-1.11a3.93,3.93,0,0,0-.85-.07c-.22,0-.37-.07-.37-.22s.18-.19.49-.19c1.11,0,2.47,0,3.07,0,.87,0,2.57,0,3.54,0,2.66,0,3.63.87,4,1.16A3.57,3.57,0,0,1,48.1,226a5,5,0,0,1-5.35,5,5.27,5.27,0,0,1-.63,0,.24.24,0,0,1-.26-.22c0-.17.24-.27.7-.27a3.22,3.22,0,0,0,2.86-3.34A3.83,3.83,0,0,0,44.15,224a3.2,3.2,0,0,0-2.13-.78,3.32,3.32,0,0,0-.92.1c-.12.05-.17.17-.17.39v8.16c0,1.89,0,3.51.1,4.41.07.58.19,1,.82,1.07a8.15,8.15,0,0,0,1.09.07c.24,0,.34.12.34.22s-.17.22-.39.22c-1.43,0-2.93-.07-3.49-.07s-1.84.07-2.69.07c-.27,0-.41-.07-.41-.22s.07-.22.34-.22a3.11,3.11,0,0,0,.75-.07c.44-.1.56-.48.63-1.09.1-.87.1-2.49.1-4.38Z"/><path d="M52,232.69c-.12,0-.14,0-.19.15l-1.14,2.79a3.73,3.73,0,0,0-.32,1.26c0,.37.2.58.85.58h.31c.27,0,.32.1.32.22s-.12.22-.34.22c-.7,0-1.69-.07-2.37-.07-.22,0-1.36.07-2.47.07-.27,0-.39,0-.39-.22s.08-.22.25-.22l.63,0c1-.15,1.33-.77,1.77-1.82l5.57-12.86c.24-.58.41-.82.63-.82s.41.19.63.65c.5,1.14,4.07,9.47,5.43,12.59.82,1.86,1.43,2.13,1.81,2.2a5.08,5.08,0,0,0,.8.07c.2,0,.29.07.29.22s-.12.22-.92.22-2.3,0-4.09,0c-.39,0-.63,0-.63-.17s0-.19.26-.22a.32.32,0,0,0,.2-.46l-1.65-4.17a.2.2,0,0,0-.22-.15Zm4.55-1.14c.1,0,.12,0,.1-.12l-2-5.16c0-.07-.05-.2-.1-.2s-.1.12-.12.2l-2.06,5.13c0,.1,0,.14.07.14Z"/><path d="M66.18,228.28c0-3.12,0-3.7,0-4.36s-.24-.92-.92-1.11a3.9,3.9,0,0,0-.85-.07c-.22,0-.36-.07-.36-.22s.17-.19.48-.19c1.11,0,2.47,0,3.07,0s2.18,0,3.46,0c2.66,0,6.25,0,8.57,2.35a7.22,7.22,0,0,1,2,5.23,8,8,0,0,1-2.33,5.74c-1,1-3.22,2.42-7.15,2.42-.77,0-1.69-.07-2.54-.12s-1.62-.12-2.15-.12l-1.21,0c-.51,0-1,0-1.48,0-.27,0-.41-.07-.41-.22s.07-.22.34-.22a3,3,0,0,0,.75-.07c.44-.1.56-.48.63-1.09.1-.87.1-2.49.1-4.38ZM69,230.56c0,2.18,0,3.76.05,4.17a3.82,3.82,0,0,0,.24,1.45c.27.39,1.12.82,2.79.82a6.73,6.73,0,0,0,4.65-1.41c1.38-1.14,1.81-3,1.81-5.11a6.69,6.69,0,0,0-2-5.13,8.58,8.58,0,0,0-6-2,4.57,4.57,0,0,0-1.31.14.36.36,0,0,0-.27.41c0,.7,0,2.4,0,4Z"/><path d="M85.82,228.28c0-3.12,0-3.7,0-4.36s-.24-.92-.92-1.11a3.84,3.84,0,0,0-.84-.07c-.22,0-.37-.07-.37-.22s.17-.19.48-.19c1.12,0,2.47,0,3.08,0s5.4,0,5.81,0a8.78,8.78,0,0,0,.9-.12,2.37,2.37,0,0,1,.34-.1c.12,0,.14.1.14.2a8.76,8.76,0,0,0-.17,1.33c0,.22-.07,1.11-.12,1.36s-.07.34-.24.34-.17-.1-.17-.27a1.9,1.9,0,0,0-.14-.75c-.17-.36-.34-.65-1.4-.75-.36,0-2.9-.1-3.34-.1-.1,0-.14.07-.14.19v5.09c0,.12,0,.22.14.22.48,0,3.24,0,3.73,0a1.68,1.68,0,0,0,1-.31c.17-.15.24-.27.34-.27s.17.1.17.22,0,.46-.17,1.5c0,.41-.1,1.24-.1,1.38s0,.46-.22.46-.2-.07-.2-.17,0-.48-.07-.75-.38-.73-1.18-.8c-.39,0-2.81-.1-3.34-.1-.1,0-.12.1-.12.22V232c0,.7,0,2.45,0,3.05,0,1.4.71,1.72,2.88,1.72a5.76,5.76,0,0,0,2-.27c.53-.24.78-.68.92-1.53.05-.22.1-.32.24-.32s.2.27.2.49a13.7,13.7,0,0,1-.29,2.28c-.14.53-.34.53-1.14.53-1.6,0-2.88,0-3.92-.07s-1.84,0-2.47,0l-1.21,0c-.51,0-1,0-1.48,0-.27,0-.41-.07-.41-.22s.07-.22.34-.22a3.12,3.12,0,0,0,.75-.07c.43-.1.56-.48.63-1.09.1-.87.1-2.49.1-4.38Z"/><path d="M98.37,237.63c-.34-.14-.41-.24-.41-.7,0-1.11.1-2.4.12-2.74s.1-.53.27-.53.21.19.21.34a3.79,3.79,0,0,0,.2,1.07c.46,1.53,2.06,2,3.39,2a2.67,2.67,0,0,0,2.95-2.62c0-.9-.22-1.79-2.11-2.91l-1.23-.73c-2.52-1.48-3.34-2.86-3.34-4.67,0-2.52,2.42-4.14,5.37-4.14a12.59,12.59,0,0,1,3,.34c.2,0,.29.12.29.27s-.07.85-.07,2.47c0,.44-.1.65-.27.65s-.22-.12-.22-.36A2.3,2.3,0,0,0,106,224a2.86,2.86,0,0,0-2.37-1c-1.53,0-2.9.8-2.9,2.2,0,.92.34,1.65,2.25,2.71l.88.48c2.81,1.55,3.68,3.13,3.68,5a4.4,4.4,0,0,1-2.13,3.85,6.21,6.21,0,0,1-3.56.85A9,9,0,0,1,98.37,237.63Z"/><path d="M122.84,227.67H123c.82-.9,4.36-4.5,5.06-5.33s1.21-1.41,1.21-1.82-.09-.44-.34-.48-.31-.1-.31-.24.12-.22.38-.22c.51,0,1.84.07,2.5.07s2.08-.07,2.84-.07c.24,0,.41,0,.41.22s-.12.22-.36.22a4.72,4.72,0,0,0-1.41.27,7.65,7.65,0,0,0-2.62,1.82c-.75.73-4.41,4.36-5.23,5.23.87,1.14,5.62,6.25,6.56,7.14a11.44,11.44,0,0,0,3.46,2.62,4.24,4.24,0,0,0,1.5.36c.17,0,.31,0,.31.19s-.12.24-.58.24h-2.11c-.73,0-1.16,0-1.67,0a4.78,4.78,0,0,1-3-1.58c-1.06-.95-5.84-6.54-6.34-7.24l-.27-.36h-.12v2.2c0,2.23,0,4.14.08,5.18,0,.68.26,1.21.87,1.31a9.6,9.6,0,0,0,1.18.1c.2,0,.31.07.31.19s-.19.24-.46.24c-1.35,0-2.88-.07-3.49-.07s-2.08.07-3.05.07c-.31,0-.48-.07-.48-.24s.09-.19.39-.19a3.77,3.77,0,0,0,.87-.1c.48-.1.61-.63.71-1.33.12-1,.12-2.93.12-5.16v-4.26c0-3.68,0-4.36-.05-5.13s-.24-1.21-1-1.38a5.16,5.16,0,0,0-.95-.07c-.27,0-.41,0-.41-.22s.17-.22.53-.22c1.28,0,2.81.07,3.39.07s2.11-.07,2.93-.07c.34,0,.51,0,.51.22s-.14.22-.34.22a3.66,3.66,0,0,0-.68.07c-.65.12-.85.54-.9,1.38s0,1.46,0,5.13Z"/><path d="M137.76,228.28c0-3.12,0-3.7,0-4.36s-.27-.94-.73-1.09a2.62,2.62,0,0,0-.77-.1c-.22,0-.34,0-.34-.24s.17-.17.51-.17c.8,0,2.25,0,2.86,0s1.92,0,2.73,0c.27,0,.44,0,.44.17s-.12.24-.34.24a2.9,2.9,0,0,0-.63.07c-.58.1-.75.39-.8,1.11s-.05,1.23-.05,4.36v3.63c0,2,0,3.63.1,4.5.08.56.21.87.85,1a8,8,0,0,0,1.09.07c.24,0,.34.12.34.22s-.17.22-.41.22c-1.4,0-2.86-.07-3.44-.07s-1.94.07-2.79.07c-.26,0-.41-.07-.41-.22s.07-.22.34-.22a3.11,3.11,0,0,0,.75-.07c.44-.1.56-.39.63-1,.1-.85.1-2.49.1-4.48Z"/><path d="M148.71,235.08c0,1.6.31,2.08.73,2.23a3.64,3.64,0,0,0,1.12.15c.24,0,.36.1.36.22s-.19.22-.48.22c-1.38,0-2.37-.07-2.76-.07-.2,0-1.21.07-2.3.07-.29,0-.48,0-.48-.22s.14-.22.34-.22a4.29,4.29,0,0,0,1-.1c.56-.14.63-.7.65-2.49l.2-12.21c0-.41.14-.71.36-.71s.56.32.92.68,3.46,3.54,6.56,6.56c1.45,1.43,4.28,4.33,4.6,4.62h.09l-.21-9.15c0-1.26-.22-1.62-.73-1.82a3.59,3.59,0,0,0-1.12-.12c-.26,0-.34-.1-.34-.22s.22-.19.53-.19c1.12,0,2.26,0,2.71,0,.24,0,1,0,2.08,0,.29,0,.48,0,.48.19s-.12.22-.37.22a2.17,2.17,0,0,0-.65.07c-.58.17-.75.53-.78,1.7l-.24,13c0,.46-.17.65-.34.65a1.28,1.28,0,0,1-.87-.44c-1.33-1.24-4-3.78-6.22-5.93s-4.58-4.72-5-5.08h-.07Z"/><path d="M180.27,236.52c0,.56,0,.58-.26.73a12.89,12.89,0,0,1-5.21.92c-5.23,0-9.86-2.37-9.86-8.07a7.63,7.63,0,0,1,3.73-6.73,10.7,10.7,0,0,1,5.74-1.33,24.11,24.11,0,0,1,3.77.34c.44.07,1.19.19,1.7.22.24,0,.29.1.29.24a27.27,27.27,0,0,0-.15,3.39c0,.31-.12.46-.29.46s-.2-.1-.22-.27a2.72,2.72,0,0,0-.73-1.69,6.58,6.58,0,0,0-4.62-1.58,6,6,0,0,0-4.12,1.21c-1.19,1-2,2.49-2,5,0,4.43,2.86,7.65,7.41,7.65a3.5,3.5,0,0,0,1.5-.22.68.68,0,0,0,.41-.73v-1.89c0-1,0-1.79,0-2.42s-.24-.92-.92-1.11a4,4,0,0,0-.82-.07c-.2,0-.34-.1-.34-.22s.17-.2.46-.2c1.12,0,2.64,0,3.27,0s1.79,0,2.5,0c.29,0,.43,0,.43.2a.24.24,0,0,1-.26.22,3,3,0,0,0-.58.07c-.58.1-.8.39-.82,1.11s0,1.46,0,2.47Z"/><path d="M193.5,226.61c0-3.68,0-4.36,0-5.13s-.24-1.21-1-1.38a5.16,5.16,0,0,0-.95-.07c-.26,0-.41,0-.41-.22s.17-.22.54-.22c1.28,0,2.81.07,3.29.07,1.19,0,2.13-.07,3-.07,4.38,0,5.16,2.35,5.16,3.63,0,2-1.14,3.17-2.47,4.24,2,.68,4.41,2.4,4.41,5.23,0,2.59-2,5.28-6.47,5.28-.29,0-1,0-1.7-.07s-1.45-.07-1.82-.07-.8,0-1.38,0-1.19,0-1.67,0c-.31,0-.48-.07-.48-.24s.1-.19.39-.19a3.74,3.74,0,0,0,.87-.1c.49-.1.61-.63.71-1.33.12-1,.12-2.93.12-5.16Zm2.91.41c0,.19.07.24.17.27a5.94,5.94,0,0,0,1.14.07,2.46,2.46,0,0,0,1.74-.46,3.16,3.16,0,0,0,1-2.57c0-1.62-.95-3.76-3-3.76a3.67,3.67,0,0,0-.8.05c-.17,0-.22.14-.22.41Zm3.2,1.94a3.46,3.46,0,0,0-2-.58c-.43,0-.68,0-1,0-.1,0-.14,0-.14.17v5.74c0,1.6.07,2,.85,2.33a4.37,4.37,0,0,0,1.77.29,2.82,2.82,0,0,0,2.93-3.1A5.77,5.77,0,0,0,199.61,229Z"/><path d="M209.42,228.28c0-3.12,0-3.7,0-4.36s-.27-.94-.73-1.09a2.65,2.65,0,0,0-.77-.1c-.22,0-.34,0-.34-.24s.17-.17.51-.17c.8,0,2.25,0,2.86,0s1.91,0,2.74,0c.26,0,.43,0,.43.17s-.12.24-.33.24a2.94,2.94,0,0,0-.63.07c-.58.1-.75.39-.8,1.11s-.05,1.23-.05,4.36v3.63c0,2,0,3.63.1,4.5.07.56.22.87.85,1a7.85,7.85,0,0,0,1.09.07c.24,0,.33.12.33.22s-.17.22-.41.22c-1.41,0-2.86-.07-3.44-.07s-1.94.07-2.78.07c-.27,0-.41-.07-.41-.22s.07-.22.34-.22a3.09,3.09,0,0,0,.75-.07c.44-.1.56-.39.63-1,.1-.85.1-2.49.1-4.48Z"/><path d="M217.88,237.63c-.34-.14-.41-.24-.41-.7,0-1.11.09-2.4.12-2.74s.1-.53.27-.53.22.19.22.34a3.78,3.78,0,0,0,.2,1.07c.46,1.53,2.06,2,3.39,2a2.67,2.67,0,0,0,3-2.62c0-.9-.22-1.79-2.11-2.91l-1.24-.73c-2.52-1.48-3.34-2.86-3.34-4.67,0-2.52,2.42-4.14,5.37-4.14a12.53,12.53,0,0,1,3,.34c.2,0,.29.12.29.27s-.07.85-.07,2.47c0,.44-.1.65-.27.65s-.21-.12-.21-.36a2.33,2.33,0,0,0-.56-1.36,2.85,2.85,0,0,0-2.37-1c-1.53,0-2.91.8-2.91,2.2,0,.92.34,1.65,2.25,2.71l.87.48c2.81,1.55,3.68,3.13,3.68,5a4.4,4.4,0,0,1-2.13,3.85,6.22,6.22,0,0,1-3.56.85A9,9,0,0,1,217.88,237.63Z"/><path d="M234.71,223.58l-3.17.07c-1.24,0-1.75.17-2.06.63a2.5,2.5,0,0,0-.37.7c0,.17-.1.27-.24.27s-.19-.12-.19-.34.41-2.32.46-2.49.12-.39.24-.39.39.17.92.24a19.29,19.29,0,0,0,2.13.1h8.65a9.22,9.22,0,0,0,1.45-.1c.34,0,.51-.09.58-.09s.17.12.17.43,0,2,0,2.5c0,.22-.07.34-.2.34s-.22-.1-.24-.41l0-.22c0-.53-.6-1.16-2.52-1.19l-2.69,0v8.33c0,1.89,0,3.51.12,4.41.08.58.2,1,.83,1.07a7.81,7.81,0,0,0,1.09.07c.24,0,.34.12.34.22s-.17.22-.41.22c-1.41,0-2.83-.07-3.44-.07s-1.94.07-2.79.07c-.27,0-.41-.07-.41-.22s.07-.22.34-.22a3,3,0,0,0,.75-.07c.44-.1.56-.48.63-1.09.1-.87.1-2.49.1-4.38Z"/><path d="M247,228.28c0-3.12,0-3.7,0-4.36s-.24-.92-.92-1.11a3.93,3.93,0,0,0-.85-.07c-.21,0-.36-.07-.36-.22s.16-.19.48-.19c1.11,0,2.47,0,2.9,0,.73,0,2.67,0,3.32,0a7.45,7.45,0,0,1,4,.87,3.59,3.59,0,0,1,1.5,2.83c0,1.52-.87,2.88-3,4.55,1.89,2.33,3.39,4.19,4.68,5.47a4,4,0,0,0,2.28,1.36,2,2,0,0,0,.51,0,.25.25,0,0,1,.27.22c0,.17-.15.22-.41.22h-2a4.64,4.64,0,0,1-2.32-.41,9.65,9.65,0,0,1-2.9-3c-.85-1.12-1.74-2.5-2-2.81a.49.49,0,0,0-.39-.14l-1.91,0a.15.15,0,0,0-.17.17v.29c0,1.91,0,3.51.12,4.38.07.61.17,1,.82,1.09a8.08,8.08,0,0,0,1,.07.25.25,0,0,1,.27.22c0,.15-.17.22-.44.22-1.24,0-3-.07-3.32-.07s-1.77.07-2.62.07c-.26,0-.41-.07-.41-.22s.08-.22.34-.22a3.11,3.11,0,0,0,.75-.07c.44-.1.56-.48.63-1.09.1-.87.1-2.49.1-4.38Zm2.71,1.6c0,.22,0,.29.2.36a5.83,5.83,0,0,0,1.62.2,2.14,2.14,0,0,0,1.5-.34,3.48,3.48,0,0,0,1.38-3.05c0-2.9-2-3.66-3.25-3.66a8,8,0,0,0-1.26.07c-.15,0-.2.12-.2.29Z"/><path d="M260.9,230.1c0-3.51,2.47-8.06,8.94-8.06,5.37,0,8.72,3,8.72,7.7s-3.44,8.43-8.94,8.43C263.42,238.16,260.9,233.75,260.9,230.1Zm14.49.39c0-4.55-2.74-7.36-6.18-7.36-2.37,0-5.16,1.26-5.16,6.35,0,4.24,2.42,7.58,6.44,7.58C272,237,275.39,236.35,275.39,230.48Z"/><path d="M240.79,138.1l-.92-2.64c-.64-1.7-1.36-4.3-2.78-7.37-.69-1.54-1.35-3.28-2.24-5.1l-3.07-5.79c-1.2-2-2.59-4.07-4-6.27s-3.17-4.31-4.89-6.59a101.44,101.44,0,0,0-12.89-13,92.22,92.22,0,0,0-16.83-11.26,94,94,0,0,0-20.12-7.63,97.54,97.54,0,0,0-21.86-2.69,97.11,97.11,0,0,0-22.11,2.7A94.49,94.49,0,0,0,109,80.09,92.37,92.37,0,0,0,92.16,91.36a101.73,101.73,0,0,0-12.89,13c-1.71,2.28-3.36,4.46-4.87,6.59s-2.77,4.27-4,6.27L67.34,123c-.9,1.82-1.56,3.57-2.25,5.11-1.41,3.08-2.13,5.65-2.77,7.35l-.92,2.64s.21-.95.63-2.72a62.21,62.21,0,0,1,2.06-7.65c.57-1.61,1.1-3.44,1.87-5.36l2.64-6.15c1.07-2.14,2.3-4.36,3.55-6.75s3-4.63,4.62-7.1A92.92,92.92,0,0,1,89.47,88.18a87.9,87.9,0,0,1,17.24-12.46l5-2.6c1.69-.8,3.46-1.49,5.21-2.25.88-.36,1.76-.76,2.65-1.1l2.74-.89c1.85-.55,3.66-1.24,5.56-1.68a102.46,102.46,0,0,1,23.17-3,101.93,101.93,0,0,1,23.41,3c1.89.44,3.71,1.12,5.55,1.68l2.73.89c.9.34,1.77.74,2.65,1.1,1.75.76,3.52,1.45,5.21,2.25l5,2.6a88.13,88.13,0,0,1,17.24,12.46,93.46,93.46,0,0,1,12.71,14.19c1.63,2.47,3.24,4.79,4.61,7.1s2.49,4.61,3.55,6.75l2.65,6.15c.77,1.92,1.3,3.76,1.88,5.37a61.29,61.29,0,0,1,2.05,7.64Z"/><path d="M124.1,66.37c1.73-.51,3.43-1.15,5.2-1.55A97.38,97.38,0,0,1,151,62a96.75,96.75,0,0,1,21.91,2.81c1.77.4,3.47,1,5.19,1.55l.14,0c.54-2.73,3.15-13.62,11.71-21.7,0,0-5.35.76-8.56,4.29,0,0-4.05-4-7.82.49a4.45,4.45,0,0,1,4,1.15c1.83,2,1.27,5.46-1.26,7.82s-6.05,2.69-7.88.73a4.28,4.28,0,0,1-1-3.43,2.47,2.47,0,0,1-.16-.28,4.82,4.82,0,0,1-1.73,3.37c-2.47,1.88-6.46.79-8.9-2.44s-2.42-7.36.05-9.24c1.83-1.38,4.46-1.13,6.7.37,0-.14.24-6.86-8.22-4.83,0,0,.33-3.7-4.11-12.41C146.65,39,147,42.71,147,42.71c-8.46-2-8.22,4.69-8.22,4.83,2.24-1.5,4.88-1.74,6.7-.37,2.47,1.88,2.5,6,.05,9.24s-6.43,4.32-8.9,2.44a4.85,4.85,0,0,1-1.73-3.37,3.18,3.18,0,0,1-.16.28,4.27,4.27,0,0,1-1,3.43c-1.82,2-5.36,1.63-7.87-.73s-3.09-5.87-1.26-7.82a4.46,4.46,0,0,1,4-1.15c-3.77-4.48-7.82-.49-7.82-.49-3.21-3.54-8.56-4.29-8.56-4.29,8.55,8.08,11.17,19,11.71,21.7Z"/><path d="M93.86,260.38c0,.67-.15,2-1.05,2-.59,0-.76-.2-.76-.74a.84.84,0,0,1,.18-.54c.28-.36.61-.69.87-1.07a2.13,2.13,0,0,0,.33-.74s.05-.3.1-.3l.06,0A3.64,3.64,0,0,1,93.86,260.38Zm-.66-2.48h4.34v-1.76H94.25l-.41.23-.62-.89c.38,0,.79.08,1.17.08h3.16v-2h-2.6v.54l-1.41.38c0-.59.08-1.2.08-1.79v-3.42c0-.25,0-.51,0-.76a4.38,4.38,0,0,1-.13-.58c0-.08.07-.12.15-.12a4.6,4.6,0,0,1,1.76.81h6c0-.05.56-.58.69-.58s1.43.82,1.43,1.05-.36.34-.49.43c0,1.09,0,2.17,0,3.27,0,.39,0,.79,0,1.18a10,10,0,0,1-1.54.25l.06-.67H98.87v2h2.86c.1-.1.49-.56.67-.56s1.17.76,1.17,1a.3.3,0,0,1-.26.15H98.87v1.76h3.48c.1-.08.66-.69.87-.69a3,3,0,0,1,1.18,1.1.21.21,0,0,1-.2.18H93.28l-.43.26-.64-1C92.53,257.83,92.89,257.9,93.2,257.9Zm4.34-5v-3.76h-2.3l-.3.18v3.58Zm-1.18-.87c-.61,0-.61-.62-.62-1.08a5.19,5.19,0,0,0-.1-.71,1.71,1.71,0,0,0-.21-.48c0-.1,0-.12.07-.12l.41.25a2.1,2.1,0,0,1,1,1.46A.64.64,0,0,1,96.35,252.06Zm0,10a.69.69,0,0,1-.66-.71c0-.41.07-.84.07-1.25a2.36,2.36,0,0,0-.07-.49,5.08,5.08,0,0,0-.26-.69c.13,0,.77.44.85.51a1.93,1.93,0,0,1,.81,1.1c0,.2.08.41.08.61A.87.87,0,0,1,96.35,262Zm3.6.16c-.89,0-.82-1.07-.82-1.68a4.27,4.27,0,0,0-.48-1.51s.07,0,.08,0a3.55,3.55,0,0,1,.48.28c.72.51,1.51,1.12,1.51,2.09A.81.81,0,0,1,100,262.19Zm1.66-9.25v-3.76H99.13a.81.81,0,0,1-.26.26v2.68a6.89,6.89,0,0,0,.9-1.89c0-.1.15-.56.23-.56a3.7,3.7,0,0,1,1.41.87c0,.17-.39.23-.49.25a18.83,18.83,0,0,1-2.05,1.92v.23Zm.56,6.2a6.61,6.61,0,0,1,1.92,1.64,1.44,1.44,0,0,1,.26.81.87.87,0,0,1-.82.94.56.56,0,0,1-.58-.31c-.36-.79-.16-1.94-.82-2.68a5,5,0,0,1-.39-.48C101.83,259,102.11,259.1,102.17,259.13Z"/><path d="M112.8,252.41l-.25.23-.64-.9c.33,0,.69.1,1,.1H114v-2.71a3.35,3.35,0,0,0,0-.56c0-.16-.21-.67-.21-.72s.12-.13.18-.13a7.62,7.62,0,0,1,1.63.54.29.29,0,0,1,.13.25c0,.15-.31.33-.41.39v2.94h.15c.05-.08.58-.74.71-.74a3.3,3.3,0,0,1,1,1.15c0,.11-.15.16-.25.16h-1.56V254c.69.18,1.69.62,1.69,1.48a.67.67,0,0,1-.71.69c-.67,0-.61-.8-.67-1.27a2.25,2.25,0,0,0-.31-.62v6.06c0,.71.06,1.45.1,2.15-.49.15-1,.28-1.49.39l.1-1.74c0-.33,0-.53,0-.86v-3.55a10.58,10.58,0,0,1-1.86,2.79c-.07.07-.38.43-.46.43s-.06-.07-.06-.1.28-.64.33-.76a23.53,23.53,0,0,0,1.94-6.74Zm3.84,6.54-1-1.49a12.24,12.24,0,0,0,2.53-1.4c0-1,.12-1.94.12-2.91,0-.82,0-1.63,0-2.45,0-.53,0-1-.07-1.56a3.91,3.91,0,0,0-.1-.61,2.12,2.12,0,0,1-.15-.46c0-.1.12-.12.2-.12a12.5,12.5,0,0,1,1.28.41c.15,0,.48.16.48.36s-.3.36-.44.44c0,1,0,2,0,3,0,1.81.07,5.11-.48,6.77a9.84,9.84,0,0,1-.74,1.51,6.08,6.08,0,0,1-2.22,2,3.26,3.26,0,0,1-.48.25.09.09,0,0,1-.08-.1.17.17,0,0,1,.07-.12,8.57,8.57,0,0,0,1.63-2.05,8.79,8.79,0,0,0,.92-3.55C117.57,257.57,117.07,258.23,116.64,258.95Zm-.26-6.29a1.13,1.13,0,0,1,.39.13,1.67,1.67,0,0,1,1.18,1.45.62.62,0,0,1-.64.66c-.89,0-.39-1.3-.82-1.84,0-.07-.21-.23-.21-.3A.1.1,0,0,1,116.38,252.66Zm6.11-.56a3.62,3.62,0,0,0,.23-.58s0-.13.08-.16c.25,0,1.45,1,1.45,1.27s-.43.25-.54.26l-1,.74c-.39.3-.82.54-1.21.81v.76c.85.44,2,1.25,2,2.32,0,.44,0,1.2-.59,1.2s-.72-.51-.76-1a8,8,0,0,0-.06-.89,3,3,0,0,0-.56-1.31v5.46c0,.3.06.39.36.39a1.73,1.73,0,0,0,.72-.13,7.55,7.55,0,0,0,.82-2.14c0-.07.06-.16.13-.16s.08.12.08.16c0,.26,0,.51,0,.76s0,.36,0,.54c0,.48.31.67.74.79-.07.23-.12.44-.2.67-.25.77-1.25.82-1.94.82-.36,0-1.56,0-1.76-.34a1.07,1.07,0,0,1-.13-.51V249.2c0-.18,0-.41-.06-.59s-.13-.41-.13-.57.1-.1.16-.1a4.7,4.7,0,0,1,.86.23c.23.06.82.25.82.56,0,.13-.31.25-.41.29l0,4.62A14.63,14.63,0,0,0,122.5,252.1Z"/><path d="M132.68,253.85c0-2.85,0-3.36,0-3.94s-.18-.91-.79-1a3.55,3.55,0,0,0-.62-.05c-.07,0-.14,0-.14-.11s.09-.15.29-.15c.82,0,1.9.05,2,.05s1.22-.05,1.77-.05c.2,0,.29,0,.29.15s-.07.11-.15.11a2.87,2.87,0,0,0-.46.05c-.49.09-.64.4-.67,1s0,1.09,0,3.94v1.1h.07c.31-.35,3.61-3.71,4.27-4.42.51-.53,1-1,1-1.31a.36.36,0,0,0-.24-.38c-.09,0-.16-.07-.16-.15s.09-.13.22-.13c.37,0,.93.05,1.37.05.09,0,1.29-.05,1.75-.05.2,0,.27,0,.27.13s0,.13-.18.13a2.7,2.7,0,0,0-1,.26,6.76,6.76,0,0,0-2,1.57c-.46.44-3.63,3.54-4,4,.47.53,4.27,4.45,5,5.15,1.53,1.42,1.84,1.71,2.72,2.08a3.35,3.35,0,0,0,1.13.24c.13,0,.24,0,.24.11s-.09.14-.4.14h-.93c-.51,0-.86,0-1.26,0a3.79,3.79,0,0,1-2.21-1.11c-.82-.68-4.69-4.86-5.56-5.93h-.09v1.79c0,1.75,0,3.19.09,4,.05.53.16.93.71,1a6.1,6.1,0,0,0,.71.07c.11,0,.15.05.15.11s-.09.14-.29.14c-.89,0-2-.05-2.1-.05s-1.21.05-1.75.05c-.2,0-.29,0-.29-.14s0-.11.14-.11a2.76,2.76,0,0,0,.55-.07c.37-.07.46-.47.53-1,.09-.77.09-2.21.09-4Z"/><path d="M157.33,250.72a9.28,9.28,0,0,0-1.58-1.2s0,0,0-.1,0,0,.08,0a13.84,13.84,0,0,1,2.17.69,6,6,0,0,0,.79-1.13h-2.6l-.36.18-.46-.84a9.57,9.57,0,0,0,1,.08h2.58c.12-.08.41-.39.56-.39s.82.54,1,.71.25.23.25.33-.43.34-.58.43c-.39.39-.77.79-1.18,1.18.49.33,1.69,1.12,1.69,1.74a.61.61,0,0,1-.62.67.86.86,0,0,1-.56-.2,5.4,5.4,0,0,1-.61-.62c-.25-.28-.51-.56-.79-.82a11.09,11.09,0,0,1-2.22,1.28c.13.1.36.25.36.41s-.16.13-.21.15a11,11,0,0,0,3.4,1.94,8,8,0,0,0,1.38.46c.1,0,.56.08.56.21s-.36.18-.48.21a1.84,1.84,0,0,0-1,.82,11.54,11.54,0,0,1-1.76-1,13.8,13.8,0,0,1-2.51-2.48c-.39.28-.79.54-1.2.79.51.12,1.53.45,1.53,1.1a.58.58,0,0,1-.59.64c-.59,0-.69-.48-.86-1a1.12,1.12,0,0,0-.41-.61,24.45,24.45,0,0,1-2.33,1.22,14.31,14.31,0,0,1,1.4.56h3.58c.13-.15.39-.54.62-.54s.82.49,1,.64.23.16.23.26-.31.33-.39.39v1.33c0,.23,0,.46,0,.69a7,7,0,0,1-1.43.34l0-.18h-4.09v2l2.33-.39a.17.17,0,0,1,.08,0s.08,0,.08.07-.33.25-.41.28a24.07,24.07,0,0,0-3,1.87L151,261.3a.82.82,0,0,0,.41-.72V256.7a2.9,2.9,0,0,0-.1-1,14.33,14.33,0,0,1-2.58.76s-.08,0-.08-.05a.13.13,0,0,1,.1-.15c.67-.31,1.35-.64,2-1a19.5,19.5,0,0,0,3.8-3c0-.07.2-.3.31-.3a3.21,3.21,0,0,1,.8.49A10.56,10.56,0,0,0,157.33,250.72Zm-6-3.5.07,0c.16,0,1.61.31,1.61.58s-.29.38-.39.46v.41c.35,0,.69,0,1,0,.08-.08.46-.48.61-.48a2.59,2.59,0,0,1,.92.82c0,.15-.07.25-.21.25-.72,0-1.45,0-2.15,0h-.18c0,.28,0,.56,0,.82a.3.3,0,0,0,0,.12h.87a2.56,2.56,0,0,1,.58-.36c.18,0,.8.63.9.71s.31.3.31.41-.48.26-.56.3a17,17,0,0,1-4.35,3,7.89,7.89,0,0,1-1.38.53s-.08,0-.08-.06.34-.26.41-.3a12.77,12.77,0,0,0,1.91-1.49,14.86,14.86,0,0,0,2-2.17H151a3.45,3.45,0,0,1-.23.29c.48.13,1,.33,1,.9a.6.6,0,0,1-.62.61c-.53,0-.41-.51-.49-.87a1.86,1.86,0,0,0-.1-.33c-.53.59-.8,1-1.36,1.51-.07.05-.29.31-.36.31a.07.07,0,0,1-.07-.06l.67-1.48a8.28,8.28,0,0,0,.59-1.68c0-.08,0-.49.16-.49a4.52,4.52,0,0,1,1.28.71l0-2.15A3.07,3.07,0,0,0,151.34,247.22Zm5.44,10.17v-.69h-3.86l-.23.15v.54Zm0,1.17v-.62h-4.09v.63Zm3.12,3.75a.63.63,0,0,1-.69.64,1.08,1.08,0,0,1-.49-.12,5.47,5.47,0,0,1-.72-.53,19.74,19.74,0,0,0-2.93-1.79,5.64,5.64,0,0,0-1.23-.53,3.54,3.54,0,0,1-.58-.18s0,0,0-.12.13-.07.16-.07a13,13,0,0,1,3.17.54,9.43,9.43,0,0,0,1.2-.77s.66-.53.69-.53c.23,0,1,.87,1,1.12s-.46.08-.57.08a14.63,14.63,0,0,0-1.45.39C158,260.74,159.91,261.58,159.91,262.3Z"/><path d="M170.11,254a.69.69,0,0,1-.46-.16c-.43-.39-.15-1.37-.92-2.12a.25.25,0,0,1-.1-.18s0,0,.1,0a2.1,2.1,0,0,1,.44.1,3.71,3.71,0,0,1,.77.36,1.64,1.64,0,0,1,.84,1.31A.69.69,0,0,1,170.11,254Zm2.65-4.4c0,.2-.45,2-.54,2.46-.2.82-.38,1.64-.57,2.48a22.52,22.52,0,0,0-.72,3.89c0,.74.33,1.38.33,2s-.21,1.07-.89,1.07a.74.74,0,0,1-.77-.82c0-.44.16-.89.16-1.35a3,3,0,0,0-.28-1.18c-.16-.35-.26-.38-.61-.56a.13.13,0,0,1-.08-.13c0-.16.74,0,1-.16a10.84,10.84,0,0,0,.92-2.28c.54-1.58,1.12-3.17,1.63-4.77,0-.13.18-.8.36-.8S172.75,249.52,172.75,249.57Zm-1.84.9a.59.59,0,0,1-.53-.25,3.29,3.29,0,0,1-.28-.79,2.45,2.45,0,0,0-.76-1.27s-.08-.07-.08-.1,0-.12.13-.12a2.14,2.14,0,0,1,.43.12,2.63,2.63,0,0,1,1.53,1,1.38,1.38,0,0,1,.23.66A.75.75,0,0,1,170.91,250.47Zm8.94-2.86c.18,0,.82.71.9.79a.51.51,0,0,1,.18.33c0,.15-.15.21-.3.21H178l0,.12-.21.13v2h.94c.08-.1.38-.51.56-.51a4.66,4.66,0,0,1,1.07.64c.07,0,.2.15.2.25s-.36.41-.48.49V261c0,.48.07,1,.1,1.43a7,7,0,0,1-1.43.33l.06-.87h-4.58v.39a8.69,8.69,0,0,1-1.33.35c0-.54.12-1.2.12-1.73v-8.5a4.27,4.27,0,0,0-.1-1.12c0-.15-.13-.36-.13-.49s.18-.13.25-.13a5.28,5.28,0,0,1,1.51.56h.62l0-2.27h-2.27l-.23.23-.58-.92c.33,0,.71.12,1,.12H179C179.06,248.27,179.69,247.61,179.85,247.61Zm-1.12,13.69v-9.52h-1v3.88c0,.12,0,.38.15.38s.25-.16.3-.16.48.69.48.86c0,.48-.84.43-1.15.43-.58,0-.84-.1-.84-.74v-4.63h-.54a20,20,0,0,1-.21,3.14,6.29,6.29,0,0,1-1,2.23c-.07.08-.28.46-.38.46a.12.12,0,0,1-.12-.12s.2-.54.21-.61a11.05,11.05,0,0,0,.51-3.8v-1.31h-.71l-.25.26v9.25Zm-1.49-3.62a.24.24,0,0,1,.15.06l.69.64a.27.27,0,0,1,.08.18.21.21,0,0,1-.21.21h-2.56l-.25.2-.51-.82c.33,0,.66.06,1,.06h.94C176.63,258.14,177,257.69,177.24,257.69Zm-.59-6.48v-2.27h-.28a.6.6,0,0,1-.26.23v2Z"/><path d="M193.8,250.53a.71.71,0,0,1-.64.74c-.41,0-.56-.39-.69-.72a3.34,3.34,0,0,0-.38-.77,3.11,3.11,0,0,0-.54-.59,12.51,12.51,0,0,1-.72,1.3c.48.23,1.33.61,1.33,1.22,0,.39-.2.79-.64.79s-.53-.49-.53-.89a1.38,1.38,0,0,0-.3-.9c-.34.53-.71,1.05-1.07,1.56l1.13.56h1.31c.07-.08.41-.53.49-.53a4.38,4.38,0,0,1,1.3.87c0,.1-.31.31-.39.38v2.58c0,.43.05.87.07,1.3a5.69,5.69,0,0,1-1.36.33l0-.46h-1.61v2.78l1.58-.58a8,8,0,0,0-.43-.82.26.26,0,0,1-.08-.18s0-.08.07-.08a7.94,7.94,0,0,1,1.4,1,1.42,1.42,0,0,1,.53,1.15.77.77,0,0,1-.69.84c-.74,0-.59-1-.64-1.43-.18.15-.38.26-.56.39a10.78,10.78,0,0,0-1,.81c-.28.26-.56.53-.84.77l-.94-1.4a.75.75,0,0,0,.39-.72v-6c0-.41,0-.79-.07-1.2a8.13,8.13,0,0,1-1.15,1.22.11.11,0,0,1-.1-.12,7.05,7.05,0,0,1,.48-.94c.23-.43.41-.87.61-1.32a13.06,13.06,0,0,0,1.28-4l.07,0a11.85,11.85,0,0,1,1.69.85.2.2,0,0,1,.1.17c0,.13-.36.21-.44.25l-.2.26C192.49,249.14,193.8,249.53,193.8,250.53Zm-1.58,4.26v-1.4h-1.45l-.17.16v1.23Zm0,1.91v-1.33l-1.61,0v1.35Zm3-5.59a1.24,1.24,0,0,1-.44,1.05.74.74,0,0,1-.51.21.57.57,0,0,1-.59-.56,1.67,1.67,0,0,1,.46-.87,1.62,1.62,0,0,0,.28-.67,2.79,2.79,0,0,0,0-.53c0-.05,0-.12.06-.12.23,0,.51.74.59.89h4s.44-.54.54-.54,1.31,1,1.31,1.32-.89.33-1.1.43-.74.63-.87.64-.08-.08-.08-.11.31-1,.38-1.13Zm3.07,5.88.07-.64h-2.48v1.59h2.51c.08-.08.36-.51.51-.51a6.09,6.09,0,0,1,1.18.74.24.24,0,0,1,.12.16c0,.16-.29.33-.39.41,0,.72,0,1.46,0,2.19,0,.43.06.89.08,1.31a5.11,5.11,0,0,1-1.41.33l.07-.79h-2.65v.72a5.46,5.46,0,0,1-1.36.3c0-.66.08-1.35.08-2v-6.74c0-.28,0-.57,0-.85,0,0,0-.26,0-.3a1.54,1.54,0,0,1-.12-.39.14.14,0,0,1,.15-.08,2.36,2.36,0,0,1,.66.3l.76.33h2.25s.41-.58.53-.58a8.49,8.49,0,0,1,1.2.71.22.22,0,0,1,.13.18c0,.12-.38.38-.44.44v1.64c0,.38,0,.79.05,1.18A5,5,0,0,1,198.26,257Zm.07-1.21v-2.15H196l-.2.15v2Zm.16,5.44v-2.7h-2.65v2.7Zm-2.07-12.46a2.66,2.66,0,0,0-.53-1.18c0-.1,0-.12.07-.12a3.77,3.77,0,0,1,1.31.64,1.41,1.41,0,0,1,.67,1.15.84.84,0,0,1-.79.86C196.45,250.11,196.46,249.24,196.42,248.76Z"/></svg>