<?xml version="1.0" encoding="UTF-8" standalone="no"?>
<svg width="24px" height="24px" viewBox="0 0 24 24" version="1.1" xmlns="http://www.w3.org/2000/svg" xmlns:xlink="http://www.w3.org/1999/xlink">
    <!-- Generator: Sketch 45.2 (43514) - http://www.bohemiancoding.com/sketch -->
    <title>Shape</title>
    <desc>Created with Sketch.</desc>
    <defs></defs>
    <g id="Page-1" stroke="none" stroke-width="1" fill="none" fill-rule="evenodd">
        <g id="Artboard" transform="translate(-77.000000, -24.000000)">
            <g id="point" transform="translate(77.000000, 24.000000)">
                <path d="M12,2 C17.52,2 22,6.48 22,12 C22,17.52 17.52,22 12,22 C6.48,22 2,17.52 2,12 C2,6.48 6.48,2 12,2 Z M16.6972656,10.2627192 C16.6972656,8.83994424 16.1397,7.86420444 15.0245521,7.33547051 C14.5727249,7.11436359 13.5729521,7.00381179 12.0252037,7.00381179 L8.60767691,7.00381179 L8.60767691,17.5880509 L10.7274087,17.5880509 L10.7274087,13.5937263 L12.1405632,13.5937263 C13.5056581,13.5937263 14.4477517,13.4735613 14.9668723,13.2332277 C16.1204736,12.6852671 16.6972656,11.6951075 16.6972656,10.2627192 Z M14.4910142,10.2915591 C14.4910142,10.9548798 14.1978116,11.397087 13.6113976,11.6181939 C13.2749305,11.7431674 12.7077517,11.8056532 11.9098441,11.8056532 L10.7274087,11.8056532 L10.7274087,8.79188487 L11.7656447,8.79188487 C12.4770322,8.79188487 12.948079,8.81111127 13.1787992,8.84956465 C13.5056529,8.90724472 13.7844357,9.02740972 14.015156,9.21006326 C14.3323964,9.48885024 14.4910142,9.84934524 14.4910142,10.2915591 Z" id="Combined-Shape"  fill="#fed558"></path>
                <polygon id="Shape" points="0 0 24 0 24 24 0 24"></polygon>
            </g>
        </g>
    </g>
</svg>
